# Blender 4.5.1 LTS
# www.blender.org
mtllib 11.mtl
o Cube.002
v 5.500000 0.000000 -2.500000
v 5.500000 2.500000 -2.500000
v 5.500000 0.000000 -2.300000
v 5.500000 2.500000 -2.300000
v 5.300001 0.000000 -2.500000
v 5.300001 2.500000 -2.500000
v 5.300001 0.000000 -2.300000
v 5.300001 2.500000 -2.300000
v 5.500001 0.000000 0.499999
v 5.500001 2.500000 0.499999
v 5.500001 0.000000 0.299999
v 5.500001 2.500000 0.299999
v 2.500002 0.000000 0.499999
v 2.500002 2.500000 0.499999
v 2.500002 0.000000 0.299999
v 2.500002 2.500000 0.299999
v 5.500001 -0.100000 -2.500001
v 5.500001 -0.100000 0.499999
v 2.500001 -0.100000 -2.500001
v 2.500002 -0.100000 0.499999
v 2.700001 0.000000 -2.499999
v 2.700001 2.500000 -2.499999
v 2.700001 0.000000 -2.299999
v 2.700001 2.500000 -2.299999
v 2.500000 0.000000 -2.499999
v 2.500000 2.500000 -2.499999
v 2.500000 0.000000 -2.299999
v 2.500000 2.500000 -2.299999
vn 1.0000 -0.0000 -0.0000
vn -0.0000 -0.0000 1.0000
vn -1.0000 -0.0000 -0.0000
vn -0.0000 -0.0000 -1.0000
vn -0.0000 -1.0000 -0.0000
vn -0.0000 1.0000 -0.0000
vt 0.375000 0.000000
vt 0.625000 0.000000
vt 0.625000 0.250000
vt 0.375000 0.250000
vt 0.625000 0.500000
vt 0.375000 0.500000
vt 0.625000 0.750000
vt 0.375000 0.750000
vt 0.625000 1.000000
vt 0.375000 1.000000
vt 0.125000 0.500000
vt 0.125000 0.750000
vt 0.875000 0.500000
vt 0.875000 0.750000
s 0
f 1/1/1 2/2/1 4/3/1 3/4/1
f 3/4/2 4/3/2 8/5/2 7/6/2
f 7/6/3 8/5/3 6/7/3 5/8/3
f 5/8/4 6/7/4 2/9/4 1/10/4
f 3/11/5 7/6/5 5/8/5 1/12/5
f 8/5/6 4/13/6 2/14/6 6/7/6
f 9/1/1 11/4/1 12/3/1 10/2/1
f 11/4/4 15/6/4 16/5/4 12/3/4
f 15/6/3 13/8/3 14/7/3 16/5/3
f 13/8/2 9/10/2 10/9/2 14/7/2
f 11/11/5 9/12/5 13/8/5 15/6/5
f 16/5/6 14/7/6 10/14/6 12/13/6
f 1/1/1 9/4/1 18/3/1 17/2/1
f 9/4/2 13/6/2 20/5/2 18/3/2
f 13/6/3 25/8/3 19/7/3 20/5/3
f 25/8/4 1/10/4 17/9/4 19/7/4
f 9/11/6 1/12/6 25/8/6 13/6/6
f 20/5/5 19/7/5 17/14/5 18/13/5
f 21/1/1 22/2/1 24/3/1 23/4/1
f 23/4/2 24/3/2 28/5/2 27/6/2
f 27/6/3 28/5/3 26/7/3 25/8/3
f 25/8/4 26/7/4 22/9/4 21/10/4
f 23/11/5 27/6/5 25/8/5 21/12/5
f 28/5/6 24/13/6 22/14/6 26/7/6
