# Blender 4.5.1 LTS
# www.blender.org
mtllib 12.mtl
o Cube.009
v 2.500000 0.000000 -2.500000
v 2.500000 2.500000 -2.500000
v 2.500000 0.000000 -2.300001
v 2.500000 2.500000 -2.300001
v 2.300001 0.000000 -2.500000
v 2.300001 2.500000 -2.500000
v 2.300001 0.000000 -2.300001
v 2.300001 2.500000 -2.300001
v -0.299999 0.000000 0.299999
v -0.299999 2.500000 0.299999
v -0.299999 0.000000 0.499999
v -0.299999 2.500000 0.499999
v -0.499999 0.000000 0.299999
v -0.499999 2.500000 0.299999
v -0.499999 0.000000 0.499999
v -0.499999 2.500000 0.499999
v 2.500001 -0.100000 -2.500001
v 2.500001 -0.100000 0.499999
v -0.499999 -0.100000 -2.500001
v -0.499999 -0.100000 0.499999
v 2.500000 0.000000 0.499999
v 2.500000 2.500000 0.499999
v 2.500000 0.000000 0.299999
v 2.500000 2.500000 0.299999
v -0.299999 0.000000 -2.500001
v -0.299999 2.500000 -2.500001
v -0.499999 0.000000 -2.500001
v -0.499999 2.500000 -2.500001
vn 1.0000 -0.0000 -0.0000
vn -0.0000 -0.0000 1.0000
vn -1.0000 -0.0000 -0.0000
vn -0.0000 -0.0000 -1.0000
vn -0.0000 -1.0000 -0.0000
vn -0.0000 1.0000 -0.0000
vt 0.375000 0.000000
vt 0.625000 0.000000
vt 0.625000 0.250000
vt 0.375000 0.250000
vt 0.625000 0.500000
vt 0.375000 0.500000
vt 0.625000 0.750000
vt 0.375000 0.750000
vt 0.625000 1.000000
vt 0.375000 1.000000
vt 0.125000 0.500000
vt 0.125000 0.750000
vt 0.875000 0.500000
vt 0.875000 0.750000
s 0
f 1/1/1 2/2/1 4/3/1 3/4/1
f 3/4/2 4/3/2 8/5/2 7/6/2
f 7/6/3 8/5/3 6/7/3 5/8/3
f 5/8/4 6/7/4 2/9/4 1/10/4
f 3/11/5 7/6/5 5/8/5 1/12/5
f 8/5/6 4/13/6 2/14/6 6/7/6
f 9/1/1 10/2/1 12/3/1 11/4/1
f 11/4/2 12/3/2 16/5/2 15/6/2
f 15/6/3 16/5/3 14/7/3 13/8/3
f 13/8/4 14/7/4 10/9/4 9/10/4
f 11/11/5 15/6/5 13/8/5 9/12/5
f 16/5/6 12/13/6 10/14/6 14/7/6
f 1/1/1 21/4/1 18/3/1 17/2/1
f 21/4/2 15/6/2 20/5/2 18/3/2
f 15/6/3 27/8/3 19/7/3 20/5/3
f 27/8/4 1/10/4 17/9/4 19/7/4
f 21/11/6 1/12/6 27/8/6 15/6/6
f 20/5/5 19/7/5 17/14/5 18/13/5
f 21/1/1 23/4/1 24/3/1 22/2/1
f 23/4/4 9/6/4 10/5/4 24/3/4
f 11/8/2 21/10/2 22/9/2 12/7/2
f 23/11/5 21/12/5 11/8/5 9/6/5
f 10/5/6 12/7/6 22/14/6 24/13/6
f 25/1/4 27/4/4 28/3/4 26/2/4
f 27/4/3 13/6/3 14/5/3 28/3/3
f 9/8/1 25/10/1 26/9/1 10/7/1
f 27/11/5 25/12/5 9/8/5 13/6/5
f 14/5/6 10/7/6 26/14/6 28/13/6
