# Blender 4.5.1 LTS
# www.blender.org
mtllib 15.mtl
o Cube.005
v 4.000000 2.039284 -3.650000
v 4.000000 -0.000716 -3.650000
v 4.000000 2.039284 -3.550000
v 4.000000 -0.000716 -3.550000
v 4.698942 0.000000 -3.650000
v 4.575700 1.731319 -3.650000
v 4.384401 1.922502 -3.650000
v 4.489471 1.836325 -3.650000
v 4.134457 2.025970 -3.650000
v 4.264527 1.986537 -3.650000
v 4.692553 1.346339 -3.650000
v 4.679230 1.481526 -3.650000
v 4.639773 1.611518 -3.650000
v 4.698942 0.000000 -3.550000
v 4.575700 1.731319 -3.550000
v 4.384401 1.922502 -3.550000
v 4.489471 1.836325 -3.550000
v 4.134457 2.025970 -3.550000
v 4.264527 1.986537 -3.550000
v 4.692553 1.346339 -3.550000
v 4.679230 1.481526 -3.550000
v 4.639773 1.611518 -3.550000
vn -0.0000 -0.0000 -1.0000
vn -0.0000 -0.0000 1.0000
vn 0.4712 0.8820 -0.0000
vn 0.9569 0.2904 -0.0000
vn 0.6342 0.7732 -0.0000
vn 0.0010 -1.0000 -0.0000
vn 0.0985 0.9951 -0.0000
vn 0.9952 0.0981 -0.0000
vn 0.7728 0.6346 -0.0000
vn 0.2901 0.9570 -0.0000
vn 1.0000 0.0047 -0.0000
vn 0.8818 0.4716 -0.0000
vn -1.0000 -0.0000 -0.0000
vt 0.000000 0.000000
s 0
f 1/1/1 9/1/1 10/1/1 7/1/1 8/1/1 6/1/1 13/1/1 12/1/1 11/1/1 5/1/1 2/1/1
f 3/1/2 4/1/2 14/1/2 20/1/2 21/1/2 22/1/2 15/1/2 17/1/2 16/1/2 19/1/2 18/1/2
f 7/1/3 10/1/3 19/1/3 16/1/3
f 12/1/4 13/1/4 22/1/4 21/1/4
f 8/1/5 7/1/5 16/1/5 17/1/5
f 2/1/6 5/1/6 14/1/6 4/1/6
f 9/1/7 1/1/7 3/1/7 18/1/7
f 11/1/8 12/1/8 21/1/8 20/1/8
f 6/1/9 8/1/9 17/1/9 15/1/9
f 10/1/10 9/1/10 18/1/10 19/1/10
f 5/1/11 11/1/11 20/1/11 14/1/11
f 13/1/12 6/1/12 15/1/12 22/1/12
f 2/1/13 4/1/13 3/1/13 1/1/13
