# Blender 4.5.1 LTS
# www.blender.org
mtllib 5.1.mtl
o Cube.008
v 8.500000 0.000000 -3.500000
v 8.500000 -0.100000 -3.500000
v 8.500000 0.000000 -6.500000
v 8.500000 -0.100000 -6.500000
v 11.500000 0.000000 -3.500000
v 11.500000 -0.100000 -3.500000
v 11.500000 -0.100000 -6.500000
v 11.299999 0.000000 -3.700001
v 11.499998 0.000000 -3.700001
v 11.299999 0.000000 -6.500000
v 11.499998 0.000000 -6.500000
v 11.299999 2.500000 -6.500000
v 11.499998 2.500000 -6.500000
v 11.499998 0.000000 -4.400247
v 11.499998 0.000000 -5.800003
v 11.299999 0.000000 -5.800003
v 11.299999 0.000000 -4.400247
v 11.299999 1.731319 -4.523489
v 11.299999 1.922502 -4.714787
v 11.299999 1.836325 -4.609717
v 11.299999 2.025970 -4.964731
v 11.299999 2.025970 -5.236563
v 11.299999 2.039284 -5.100000
v 11.299999 1.986537 -4.834661
v 11.299999 1.922502 -5.488899
v 11.299999 1.731319 -5.682029
v 11.299999 1.836325 -5.594975
v 11.299999 1.481526 -5.786550
v 11.299999 1.346339 -5.800000
v 11.299999 1.611518 -5.746716
v 11.299999 1.986537 -5.367878
v 11.299999 1.346339 -4.406636
v 11.299999 1.481526 -4.419959
v 11.299999 1.611518 -4.459415
v 11.499998 1.481526 -4.419959
v 11.499998 1.346339 -4.406636
v 11.499998 1.731319 -4.523489
v 11.499998 1.922502 -4.714787
v 11.499998 1.836325 -4.609717
v 11.499998 1.611518 -4.459415
v 11.499998 2.025970 -4.964731
v 11.499998 2.025970 -5.236563
v 11.499998 2.039284 -5.100000
v 11.499998 1.922502 -5.488899
v 11.499998 1.836325 -5.594975
v 11.499998 1.986537 -5.367878
v 11.499998 1.986537 -4.834661
v 11.499998 1.731319 -5.682029
v 11.499998 1.481526 -5.786550
v 11.499998 1.346339 -5.800000
v 11.499998 1.611518 -5.746716
v 11.499999 2.500000 -3.500000
v 11.499999 2.500000 -3.700000
v 8.499998 0.000000 -3.700000
v 8.499998 2.500000 -3.700000
v 8.499998 2.500000 -3.500000
v 11.299998 2.500000 -3.700000
v 11.299998 0.000000 -3.500000
v 11.299998 2.500000 -3.500000
vn -1.0000 -0.0000 -0.0000
vn -0.0000 -0.0000 -1.0000
vn 1.0000 -0.0000 -0.0000
vn -0.0000 -0.0000 1.0000
vn -0.0000 1.0000 -0.0000
vn -0.0000 -1.0000 -0.0000
vn -0.0000 -0.0047 -1.0000
vn -0.0000 -0.0981 -0.9952
vn -0.0000 -0.2904 -0.9569
vn -0.0000 -0.4716 -0.8818
vn -0.0000 -0.6346 -0.7728
vn -0.0000 -0.7732 -0.6342
vn -0.0000 -0.8820 -0.4712
vn -0.0000 -0.9570 -0.2901
vn -0.0000 -0.9952 -0.0980
vn -0.0000 -0.9953 0.0970
vn -0.0000 -0.9578 0.2876
vn -0.0000 -0.8839 0.4677
vn -0.0000 -0.7761 0.6305
vn -0.0000 -0.6382 0.7698
vn -0.0000 -0.4751 0.8799
vn -0.0000 -0.2930 0.9561
vn -0.0000 -0.0990 0.9951
vt 0.375000 0.000000
vt 0.625000 0.000000
vt 0.625000 0.250000
vt 0.375000 0.250000
vt 0.625000 0.500000
vt 0.375000 0.500000
vt 0.625000 0.750000
vt 0.375000 0.750000
vt 0.625000 1.000000
vt 0.375000 1.000000
vt 0.125000 0.500000
vt 0.125000 0.750000
vt 0.875000 0.500000
vt 0.875000 0.750000
vt 0.625000 0.933313
vt 0.375000 0.933313
vt 0.375000 0.816666
vt 0.625000 0.816666
vt 0.191687 0.750000
vt 0.192220 0.615366
vt 0.193330 0.601847
vt 0.196618 0.588848
vt 0.201957 0.576868
vt 0.209143 0.566367
vt 0.217899 0.557750
vt 0.227888 0.551346
vt 0.238728 0.547403
vt 0.250000 0.546072
vt 0.261380 0.547403
vt 0.272323 0.551346
vt 0.282408 0.557750
vt 0.291248 0.566367
vt 0.298502 0.576868
vt 0.303893 0.588848
vt 0.307213 0.601847
vt 0.308333 0.615366
vt 0.308334 0.750000
vt 0.691666 0.750000
vt 0.691667 0.615366
vt 0.692788 0.601847
vt 0.696107 0.588848
vt 0.701498 0.576868
vt 0.708752 0.566367
vt 0.717592 0.557750
vt 0.727677 0.551346
vt 0.738620 0.547403
vt 0.750000 0.546072
vt 0.761272 0.547403
vt 0.772112 0.551346
vt 0.782101 0.557750
vt 0.790857 0.566368
vt 0.798043 0.576868
vt 0.803382 0.588848
vt 0.806670 0.601847
vt 0.807780 0.615366
vt 0.808313 0.750000
vt 0.279901 0.874990
vt 0.250000 0.874990
vt 0.250000 0.625010
vt 0.279902 0.625010
vt 0.218750 0.874990
vt 0.218750 0.625010
vt 0.187500 0.874990
vt 0.187500 0.625010
vt 0.156250 0.874990
vt 0.156250 0.625010
vt 0.125000 0.874990
vt 0.125000 0.625010
vt 0.093750 0.874990
vt 0.093750 0.625010
vt 0.062500 0.874990
vt 0.062500 0.625010
vt 0.031250 0.874990
vt 0.031250 0.625010
vt 0.000000 0.874990
vt 0.000000 0.625010
vt 1.000000 0.874990
vt 0.968750 0.874990
vt 0.968750 0.625010
vt 1.000000 0.625010
vt 0.937500 0.874990
vt 0.937500 0.625010
vt 0.906250 0.874990
vt 0.906250 0.625010
vt 0.875000 0.874990
vt 0.875000 0.625010
vt 0.843750 0.874990
vt 0.843750 0.625010
vt 0.812500 0.874990
vt 0.812500 0.625010
vt 0.781250 0.874990
vt 0.781250 0.625010
vt 0.750000 0.874990
vt 0.750000 0.625010
vt 0.720098 0.874990
vt 0.720098 0.625010
s 0
f 1/1/1 3/4/1 4/3/1 2/2/1
f 3/4/2 11/6/2 7/5/2 4/3/2
f 11/6/3 5/8/3 6/7/3 7/5/3
f 5/8/4 1/10/4 2/9/4 6/7/4
f 3/11/5 1/12/5 5/8/5 11/6/5
f 7/5/6 6/7/6 2/14/6 4/13/6
f 8/1/4 9/2/4 53/3/4 57/4/4
f 57/4/5 53/3/5 13/5/5 12/6/5
f 12/6/2 13/5/2 11/7/2 10/8/2
f 9/9/6 8/10/6 17/16/6 14/15/6
f 10/8/6 11/7/6 15/18/6 16/17/6
f 8/12/1 57/11/1 12/6/1 10/8/1 16/37/1 29/36/1 28/35/1 30/34/1 26/33/1 27/32/1 25/31/1 31/30/1 22/29/1 23/28/1 21/27/1 24/26/1 19/25/1 20/24/1 18/23/1 34/22/1 33/21/1 32/20/1 17/19/1
f 15/38/3 11/7/3 13/5/3 53/13/3 9/14/3 14/56/3 36/55/3 35/54/3 40/53/3 37/52/3 39/51/3 38/50/3 47/49/3 41/48/3 43/47/3 42/46/3 46/45/3 44/44/3 45/43/3 48/42/3 51/41/3 49/40/3 50/39/3
f 14/57/7 17/60/7 32/59/7 36/58/7
f 36/58/8 32/59/8 33/62/8 35/61/8
f 35/61/9 33/62/9 34/64/9 40/63/9
f 40/63/10 34/64/10 18/66/10 37/65/10
f 37/65/11 18/66/11 20/68/11 39/67/11
f 39/67/12 20/68/12 19/70/12 38/69/12
f 38/69/13 19/70/13 24/72/13 47/71/13
f 47/71/14 24/72/14 21/74/14 41/73/14
f 41/73/15 21/74/15 23/76/15 43/75/15
f 43/77/16 23/80/16 22/79/16 42/78/16
f 42/78/17 22/79/17 31/82/17 46/81/17
f 46/81/18 31/82/18 25/84/18 44/83/18
f 44/83/19 25/84/19 27/86/19 45/85/19
f 27/86/20 26/88/20 48/87/20 45/85/20
f 26/88/21 30/90/21 51/89/21 48/87/21
f 30/90/22 28/92/22 49/91/22 51/89/22
f 28/92/23 29/94/23 50/93/23 49/91/23
f 15/95/4 50/93/4 29/94/4 16/96/4
f 58/1/1 59/2/1 57/3/1 8/4/1
f 9/6/3 53/5/3 52/7/3 5/8/3
f 5/8/4 52/7/4 59/9/4 58/10/4
f 8/11/6 9/6/6 5/8/6 58/12/6
f 53/5/5 57/13/5 59/14/5 52/7/5
f 54/1/1 1/4/1 56/3/1 55/2/1
f 1/4/4 58/6/4 59/5/4 56/3/4
f 8/8/2 54/10/2 55/9/2 57/7/2
f 1/11/6 54/12/6 8/8/6 58/6/6
f 59/5/5 57/7/5 55/14/5 56/13/5
