# Blender 4.5.1 LTS
# www.blender.org
mtllib 7.mtl
o Cube.007
v 2.500000 2.500000 -6.500000
v 2.500000 0.000000 -6.300000
v 2.500000 2.500000 -6.300000
v 5.500000 2.500000 -6.500000
v 5.500000 0.000000 -6.300000
v 5.500000 2.500000 -6.300000
v 2.500000 -0.100000 -3.500000
v 2.500000 0.000000 -6.500000
v 2.500000 -0.100000 -6.500000
v 5.500000 -0.100000 -3.500000
v 5.500000 0.000000 -6.500000
v 5.500000 -0.100000 -6.500000
v 2.500000 0.000000 -3.700000
v 2.500000 0.000000 -3.500000
v 2.500000 2.500000 -3.700000
v 2.500000 2.500000 -3.500000
v 5.500000 0.000000 -3.700000
v 5.500000 0.000000 -3.500000
v 5.500000 2.500000 -3.700000
v 5.500000 2.500000 -3.500000
v 3.300247 0.000000 -3.500000
v 4.700003 0.000000 -3.500000
v 4.700003 0.000000 -3.700000
v 3.300247 0.000000 -3.700000
v 3.423489 1.731319 -3.700000
v 3.614788 1.922502 -3.700000
v 3.509717 1.836326 -3.700000
v 3.864731 2.025970 -3.700000
v 4.136563 2.025970 -3.700000
v 4.000000 2.039284 -3.700000
v 3.734661 1.986537 -3.700000
v 4.388899 1.922502 -3.700000
v 4.582028 1.731319 -3.700000
v 4.494975 1.836326 -3.700000
v 4.686550 1.481526 -3.700000
v 4.700000 1.346339 -3.700000
v 4.646716 1.611518 -3.700000
v 4.267879 1.986537 -3.700000
v 3.306636 1.346339 -3.700000
v 3.319959 1.481526 -3.700000
v 3.359415 1.611518 -3.700000
v 3.319959 1.481526 -3.500000
v 3.306636 1.346339 -3.500000
v 3.423489 1.731319 -3.500000
v 3.614788 1.922502 -3.500000
v 3.509717 1.836326 -3.500000
v 3.359415 1.611518 -3.500000
v 3.864731 2.025970 -3.500000
v 4.136563 2.025970 -3.500000
v 4.000000 2.039284 -3.500000
v 4.388899 1.922502 -3.500000
v 4.494975 1.836326 -3.500000
v 4.267879 1.986537 -3.500000
v 3.734661 1.986537 -3.500000
v 4.582028 1.731319 -3.500000
v 4.686550 1.481526 -3.500000
v 4.700000 1.346339 -3.500000
v 4.646716 1.611518 -3.500000
vn -1.0000 -0.0000 -0.0000
vn -0.0000 -0.0000 1.0000
vn 1.0000 -0.0000 -0.0000
vn -0.0000 -0.0000 -1.0000
vn -0.0000 -1.0000 -0.0000
vn -0.0000 1.0000 -0.0000
vn 1.0000 -0.0047 -0.0000
vn 0.9952 -0.0981 -0.0000
vn 0.9569 -0.2904 -0.0000
vn 0.8818 -0.4716 -0.0000
vn 0.7728 -0.6346 -0.0000
vn 0.6342 -0.7732 -0.0000
vn 0.4712 -0.8820 -0.0000
vn 0.2901 -0.9570 -0.0000
vn 0.0980 -0.9952 -0.0000
vn -0.0970 -0.9953 -0.0000
vn -0.2876 -0.9578 -0.0000
vn -0.4677 -0.8839 -0.0000
vn -0.6305 -0.7761 -0.0000
vn -0.7698 -0.6382 -0.0000
vn -0.8799 -0.4751 -0.0000
vn -0.9561 -0.2930 -0.0000
vn -0.9951 -0.0990 -0.0000
vt 0.375000 0.000000
vt 0.625000 0.000000
vt 0.625000 0.250000
vt 0.375000 0.250000
vt 0.625000 0.500000
vt 0.375000 0.500000
vt 0.625000 0.750000
vt 0.375000 0.750000
vt 0.625000 1.000000
vt 0.375000 1.000000
vt 0.125000 0.500000
vt 0.125000 0.750000
vt 0.875000 0.500000
vt 0.875000 0.750000
vt 0.625000 0.933313
vt 0.375000 0.933313
vt 0.375000 0.816666
vt 0.625000 0.816666
vt 0.191687 0.750000
vt 0.192220 0.615366
vt 0.193330 0.601847
vt 0.196618 0.588848
vt 0.201957 0.576868
vt 0.209143 0.566367
vt 0.217899 0.557750
vt 0.227888 0.551346
vt 0.238728 0.547403
vt 0.250000 0.546072
vt 0.261380 0.547403
vt 0.272323 0.551346
vt 0.282408 0.557750
vt 0.291248 0.566367
vt 0.298502 0.576868
vt 0.303893 0.588848
vt 0.307213 0.601847
vt 0.308333 0.615366
vt 0.308334 0.750000
vt 0.691666 0.750000
vt 0.691667 0.615366
vt 0.692788 0.601847
vt 0.696107 0.588848
vt 0.701498 0.576868
vt 0.708752 0.566367
vt 0.717592 0.557750
vt 0.727677 0.551346
vt 0.738620 0.547403
vt 0.750000 0.546072
vt 0.761272 0.547403
vt 0.772112 0.551346
vt 0.782101 0.557750
vt 0.790857 0.566368
vt 0.798043 0.576868
vt 0.803382 0.588848
vt 0.806670 0.601847
vt 0.807780 0.615366
vt 0.808313 0.750000
vt 0.279901 0.874990
vt 0.250000 0.874990
vt 0.250000 0.625010
vt 0.279902 0.625010
vt 0.218750 0.874990
vt 0.218750 0.625010
vt 0.187500 0.874990
vt 0.187500 0.625010
vt 0.156250 0.874990
vt 0.156250 0.625010
vt 0.125000 0.874990
vt 0.125000 0.625010
vt 0.093750 0.874990
vt 0.093750 0.625010
vt 0.062500 0.874990
vt 0.062500 0.625010
vt 0.031250 0.874990
vt 0.031250 0.625010
vt 0.000000 0.874990
vt 0.000000 0.625010
vt 1.000000 0.874990
vt 0.968750 0.874990
vt 0.968750 0.625010
vt 1.000000 0.625010
vt 0.937500 0.874990
vt 0.937500 0.625010
vt 0.906250 0.874990
vt 0.906250 0.625010
vt 0.875000 0.874990
vt 0.875000 0.625010
vt 0.843750 0.874990
vt 0.843750 0.625010
vt 0.812500 0.874990
vt 0.812500 0.625010
vt 0.781250 0.874990
vt 0.781250 0.625010
vt 0.750000 0.874990
vt 0.750000 0.625010
vt 0.720098 0.874990
vt 0.720098 0.625010
s 0
f 8/1/1 2/4/1 3/3/1 1/2/1
f 2/4/2 5/6/2 6/5/2 3/3/2
f 5/6/3 11/8/3 4/7/3 6/5/3
f 11/8/4 8/10/4 1/9/4 4/7/4
f 2/11/5 8/12/5 11/8/5 5/6/5
f 6/5/6 4/7/6 1/14/6 3/13/6
f 14/1/1 8/4/1 9/3/1 7/2/1
f 8/4/4 11/6/4 12/5/4 9/3/4
f 11/6/3 18/8/3 10/7/3 12/5/3
f 18/8/2 14/10/2 7/9/2 10/7/2
f 8/11/6 14/12/6 18/8/6 11/6/6
f 12/5/5 10/7/5 7/14/5 9/13/5
f 13/1/1 14/2/1 16/3/1 15/4/1
f 15/4/6 16/3/6 20/5/6 19/6/6
f 19/6/3 20/5/3 18/7/3 17/8/3
f 14/9/5 13/10/5 24/16/5 21/15/5
f 17/8/5 18/7/5 22/18/5 23/17/5
f 13/12/4 15/11/4 19/6/4 17/8/4 23/37/4 36/36/4 35/35/4 37/34/4 33/33/4 34/32/4 32/31/4 38/30/4 29/29/4 30/28/4 28/27/4 31/26/4 26/25/4 27/24/4 25/23/4 41/22/4 40/21/4 39/20/4 24/19/4
f 22/38/2 18/7/2 20/5/2 16/13/2 14/14/2 21/56/2 43/55/2 42/54/2 47/53/2 44/52/2 46/51/2 45/50/2 54/49/2 48/48/2 50/47/2 49/46/2 53/45/2 51/44/2 52/43/2 55/42/2 58/41/2 56/40/2 57/39/2
f 21/57/7 24/60/7 39/59/7 43/58/7
f 43/58/8 39/59/8 40/62/8 42/61/8
f 42/61/9 40/62/9 41/64/9 47/63/9
f 47/63/10 41/64/10 25/66/10 44/65/10
f 44/65/11 25/66/11 27/68/11 46/67/11
f 46/67/12 27/68/12 26/70/12 45/69/12
f 45/69/13 26/70/13 31/72/13 54/71/13
f 54/71/14 31/72/14 28/74/14 48/73/14
f 48/73/15 28/74/15 30/76/15 50/75/15
f 50/77/16 30/80/16 29/79/16 49/78/16
f 49/78/17 29/79/17 38/82/17 53/81/17
f 53/81/18 38/82/18 32/84/18 51/83/18
f 51/83/19 32/84/19 34/86/19 52/85/19
f 34/86/20 33/88/20 55/87/20 52/85/20
f 33/88/21 37/90/21 58/89/21 55/87/21
f 37/90/22 35/92/22 56/91/22 58/89/22
f 35/92/23 36/94/23 57/93/23 56/91/23
f 22/95/1 57/93/1 36/94/1 23/96/1
